<svg width="35" height="20" viewBox="0 0 20 20" fill="none" xmlns="http://www.w3.org/2000/svg">
<path d="M1.64145 6.81256C1.45346 6.81256 1.27316 6.88229 1.14023 7.00642C1.0073 7.13054 0.932617 7.29888 0.932617 7.47442V16.4095C0.932617 17.6604 2.07384 18.726 3.41355 18.726H15.4638C16.8035 18.726 17.9447 17.7122 17.9447 16.4612V7.47442C17.9447 7.29888 17.87 7.13054 17.7371 7.00642C17.6042 6.88229 17.4239 6.81256 17.2359 6.81256H1.64145Z" stroke="#474A51" stroke-linecap="round" stroke-linejoin="round"/>
<path d="M4.93555 6.81258V5.32339C4.93555 4.13852 5.40999 3.00218 6.25451 2.16435C7.09903 1.32652 8.24445 0.855835 9.43878 0.855835V0.855835C10.6331 0.855835 11.7785 1.32652 12.6231 2.16435C13.4676 3.00218 13.942 4.13852 13.942 5.32339V6.81258" stroke="#474A51" stroke-linecap="round" stroke-linejoin="round"/>
</svg>
